<?xml version="1.0" encoding="UTF-8"?>
<svg id="Camada_6" data-name="Camada 6" xmlns="http://www.w3.org/2000/svg" width="4798.7" height="1175.8" xmlns:xlink="http://www.w3.org/1999/xlink" viewBox="0 0 4798.7 1175.8">
  <defs>
    <style>
      .cls-1 {
        fill: #2b0406;
      }

      .cls-2 {
        fill: url(#Gradiente_sem_nome_173);
      }

      .cls-2, .cls-3, .cls-4, .cls-5, .cls-6, .cls-7, .cls-8, .cls-9, .cls-10, .cls-11, .cls-12, .cls-13, .cls-14, .cls-15, .cls-16, .cls-17, .cls-18, .cls-19, .cls-20, .cls-21, .cls-22, .cls-23, .cls-24, .cls-25, .cls-26, .cls-27, .cls-28, .cls-29, .cls-30, .cls-31, .cls-32, .cls-33, .cls-34, .cls-35, .cls-36 {
        stroke-miterlimit: 10;
      }

      .cls-2, .cls-3, .cls-4, .cls-5, .cls-7, .cls-8, .cls-9, .cls-10, .cls-11, .cls-13, .cls-14, .cls-15, .cls-16, .cls-17, .cls-18, .cls-20, .cls-22, .cls-24, .cls-25, .cls-27, .cls-28, .cls-29, .cls-30, .cls-32, .cls-33, .cls-34 {
        stroke: #c1272d;
      }

      .cls-2, .cls-8, .cls-11, .cls-13, .cls-14, .cls-17, .cls-20, .cls-22, .cls-25, .cls-27, .cls-28, .cls-30, .cls-33 {
        stroke-width: 1.8px;
      }

      .cls-37, .cls-6 {
        fill: #282210;
      }

      .cls-3, .cls-9, .cls-10, .cls-15, .cls-32 {
        stroke-width: 1.9px;
      }

      .cls-3, .cls-34 {
        fill: #bc220d;
      }

      .cls-4 {
        stroke-width: 1.8px;
      }

      .cls-4, .cls-33 {
        fill: #cf1614;
      }

      .cls-38 {
        fill: url(#Gradiente_sem_nome_563);
      }

      .cls-5, .cls-7, .cls-8, .cls-9, .cls-16 {
        fill: #e42804;
      }

      .cls-5, .cls-24, .cls-34 {
        stroke-width: 1.4px;
      }

      .cls-6 {
        stroke-width: .2px;
      }

      .cls-6, .cls-12, .cls-19, .cls-21, .cls-23, .cls-26, .cls-31, .cls-35, .cls-36 {
        stroke: #2b0406;
      }

      .cls-7 {
        stroke-width: 2.3px;
      }

      .cls-10 {
        fill: url(#Gradiente_sem_nome_441);
      }

      .cls-11 {
        fill: url(#Gradiente_sem_nome_168);
      }

      .cls-12 {
        fill: #c4b483;
      }

      .cls-12, .cls-19, .cls-26, .cls-31, .cls-35, .cls-36 {
        stroke-width: .6px;
      }

      .cls-13 {
        fill: url(#Gradiente_sem_nome_468);
      }

      .cls-14 {
        fill: url(#Gradiente_sem_nome_496);
      }

      .cls-39 {
        fill: url(#Gradiente_sem_nome_570);
      }

      .cls-15 {
        fill: url(#Gradiente_sem_nome_268);
      }

      .cls-16 {
        stroke-width: 1.8px;
      }

      .cls-17 {
        fill: url(#Gradiente_sem_nome_144);
      }

      .cls-18 {
        fill: url(#Gradiente_sem_nome_491);
        stroke-width: 1.8px;
      }

      .cls-19 {
        fill: url(#Gradiente_sem_nome_550);
      }

      .cls-20, .cls-29 {
        fill: #dd0e22;
      }

      .cls-21 {
        fill: url(#Gradiente_sem_nome_526);
      }

      .cls-21, .cls-23 {
        opacity: .8;
        stroke-width: .4px;
      }

      .cls-22 {
        fill: url(#Gradiente_sem_nome_184);
      }

      .cls-23 {
        fill: url(#Gradiente_sem_nome_527);
      }

      .cls-24 {
        fill: url(#Gradiente_sem_nome_433);
      }

      .cls-25 {
        fill: url(#Gradiente_sem_nome_147);
      }

      .cls-26 {
        fill: url(#Gradiente_sem_nome_553);
      }

      .cls-27 {
        fill: url(#Gradiente_sem_nome_571);
      }

      .cls-28 {
        fill: url(#Gradiente_sem_nome_180);
      }

      .cls-29 {
        stroke-width: .8px;
      }

      .cls-30 {
        fill: url(#Gradiente_sem_nome_263);
        opacity: .7;
      }

      .cls-31 {
        fill: url(#Gradiente_sem_nome_542);
      }

      .cls-32 {
        fill: url(#Gradiente_sem_nome_418);
      }

      .cls-35 {
        fill: #eaaa7f;
      }

      .cls-36 {
        fill: #5a4a41;
      }
    </style>
    <linearGradient id="Gradiente_sem_nome_418" data-name="Gradiente sem nome 418" x1="1549.6" y1="548.4" x2="1646.7" y2="548.4" gradientTransform="translate(-42.8 243.3) rotate(-3)" gradientUnits="userSpaceOnUse">
      <stop offset="0" stop-color="#bc220d"/>
      <stop offset=".2" stop-color="#ed1704"/>
      <stop offset=".4" stop-color="#d5180c"/>
      <stop offset=".5" stop-color="#d4170d"/>
      <stop offset=".9" stop-color="#ad171c"/>
    </linearGradient>
    <linearGradient id="Gradiente_sem_nome_468" data-name="Gradiente sem nome 468" x1="818" y1="438.8" x2="1923.5" y2="438.8" gradientTransform="translate(-42.8 243.3) rotate(-3)" gradientUnits="userSpaceOnUse">
      <stop offset="0" stop-color="#aa1c17"/>
      <stop offset=".4" stop-color="#e52804"/>
      <stop offset=".7" stop-color="#d4170d"/>
      <stop offset="1" stop-color="#7a3417"/>
    </linearGradient>
    <linearGradient id="Gradiente_sem_nome_268" data-name="Gradiente sem nome 268" x1="1169.5" y1="470.2" x2="1379.6" y2="470.2" gradientTransform="translate(-42.8 243.3) rotate(-3)" gradientUnits="userSpaceOnUse">
      <stop offset=".1" stop-color="#d51610"/>
      <stop offset=".2" stop-color="#c92723"/>
      <stop offset=".9" stop-color="#603813"/>
    </linearGradient>
    <linearGradient id="Gradiente_sem_nome_542" data-name="Gradiente sem nome 542" x1="1244.8" y1="466.6" x2="1335.8" y2="433.4" gradientTransform="translate(-42.8 243.3) rotate(-3)" gradientUnits="userSpaceOnUse">
      <stop offset=".1" stop-color="#5a4a41"/>
      <stop offset=".6" stop-color="#c4b483"/>
      <stop offset="1" stop-color="#5a4a41"/>
    </linearGradient>
    <linearGradient id="Gradiente_sem_nome_553" data-name="Gradiente sem nome 553" x1="1238.7" y1="435.6" x2="1249.9" y2="435.6" gradientTransform="translate(-42.8 243.3) rotate(-3)" gradientUnits="userSpaceOnUse">
      <stop offset="0" stop-color="#42210b"/>
      <stop offset=".6" stop-color="#5a4a41"/>
    </linearGradient>
    <linearGradient id="Gradiente_sem_nome_550" data-name="Gradiente sem nome 550" x1="1330" y1="433.2" x2="1343.2" y2="433.2" gradientTransform="translate(-42.8 243.3) rotate(-3)" gradientUnits="userSpaceOnUse">
      <stop offset="0" stop-color="#5a4a41"/>
      <stop offset="1" stop-color="#42210b"/>
    </linearGradient>
    <linearGradient id="Gradiente_sem_nome_526" data-name="Gradiente sem nome 526" x1="1283.9" y1="412.5" x2="1258.2" y2="412.5" gradientTransform="translate(74.2 -49.5) rotate(10.6)" gradientUnits="userSpaceOnUse">
      <stop offset=".1" stop-color="#baf7f4" stop-opacity=".8"/>
      <stop offset=".6" stop-color="#fff"/>
      <stop offset=".9" stop-color="#baf7f4" stop-opacity=".8"/>
    </linearGradient>
    <linearGradient id="Gradiente_sem_nome_527" data-name="Gradiente sem nome 527" x1="1296.6" y1="416.1" x2="1319.6" y2="407.7" gradientTransform="translate(1541.6 -760.6) rotate(83.3)" gradientUnits="userSpaceOnUse">
      <stop offset=".1" stop-color="#baf7f4" stop-opacity=".8"/>
      <stop offset=".6" stop-color="#fff"/>
      <stop offset=".9" stop-color="#baf7f4" stop-opacity=".8"/>
    </linearGradient>
    <linearGradient id="Gradiente_sem_nome_263" data-name="Gradiente sem nome 263" x1="1169.5" y1="440" x2="1277.7" y2="440" gradientTransform="translate(-42.8 243.3) rotate(-3)" gradientUnits="userSpaceOnUse">
      <stop offset=".4" stop-color="#fff"/>
      <stop offset=".9" stop-color="aqua"/>
    </linearGradient>
    <linearGradient id="Gradiente_sem_nome_563" data-name="Gradiente sem nome 563" x1="1043.1" y1="734.8" x2="1103" y2="713.1" gradientTransform="translate(-42.8 243.3) rotate(-3)" gradientUnits="userSpaceOnUse">
      <stop offset=".1" stop-color="#000"/>
      <stop offset=".4" stop-color="#5a4a41"/>
      <stop offset=".8" stop-color="#2b0406"/>
    </linearGradient>
    <linearGradient id="Gradiente_sem_nome_144" data-name="Gradiente sem nome 144" x1="1058.5" y1="724.9" x2="1089.4" y2="724.9" gradientTransform="translate(-42.8 243.3) rotate(-3)" gradientUnits="userSpaceOnUse">
      <stop offset=".1" stop-color="#c1272d"/>
      <stop offset=".5" stop-color="#d4170d"/>
      <stop offset=".7" stop-color="#e52804"/>
      <stop offset=".9" stop-color="#f43522"/>
    </linearGradient>
    <linearGradient id="Gradiente_sem_nome_571" data-name="Gradiente sem nome 571" x1="1391.6" y1="444.6" x2="1286.5" y2="694.3" gradientTransform="translate(-42.8 243.3) rotate(-3)" gradientUnits="userSpaceOnUse">
      <stop offset="0" stop-color="#bc220d"/>
      <stop offset=".3" stop-color="#ed1704"/>
      <stop offset=".4" stop-color="#d5180c"/>
      <stop offset=".6" stop-color="#d4170d"/>
      <stop offset=".9" stop-color="#ad171c"/>
    </linearGradient>
    <linearGradient id="Gradiente_sem_nome_491" data-name="Gradiente sem nome 491" x1="978.8" y1="380.7" x2="1911.3" y2="899.1" gradientTransform="translate(-42.8 243.3) rotate(-3)" gradientUnits="userSpaceOnUse">
      <stop offset="0" stop-color="#a7272d"/>
      <stop offset=".2" stop-color="#c1272d"/>
      <stop offset=".4" stop-color="#d4170d"/>
      <stop offset=".6" stop-color="#e32605"/>
      <stop offset="1" stop-color="#7d3420"/>
    </linearGradient>
    <linearGradient id="Gradiente_sem_nome_147" data-name="Gradiente sem nome 147" x1="1035.1" y1="504.4" x2="1196.5" y2="504.4" gradientTransform="translate(-42.8 243.3) rotate(-3)" gradientUnits="userSpaceOnUse">
      <stop offset=".1" stop-color="#c1272d"/>
      <stop offset=".4" stop-color="#d4170d"/>
      <stop offset=".7" stop-color="#e52804"/>
      <stop offset=".9" stop-color="#f43522"/>
    </linearGradient>
    <linearGradient id="Gradiente_sem_nome_496" data-name="Gradiente sem nome 496" x1="1012.5" y1="478.3" x2="1121.5" y2="478.3" gradientTransform="translate(1359.7 -461.5) rotate(81.3)" gradientUnits="userSpaceOnUse">
      <stop offset="0" stop-color="#a7272d"/>
      <stop offset=".4" stop-color="#c1272d"/>
      <stop offset=".6" stop-color="#d4170d"/>
      <stop offset=".9" stop-color="#e32605"/>
    </linearGradient>
    <linearGradient id="Gradiente_sem_nome_180" data-name="Gradiente sem nome 180" x1="919.5" y1="377" x2="1041.7" y2="377" gradientTransform="translate(347.5 -287.5) rotate(33.6)" gradientUnits="userSpaceOnUse">
      <stop offset="0" stop-color="#bc220d"/>
      <stop offset=".4" stop-color="#e52804"/>
      <stop offset=".8" stop-color="#dd0e22"/>
      <stop offset=".9" stop-color="#d4170d"/>
    </linearGradient>
    <linearGradient id="Gradiente_sem_nome_184" data-name="Gradiente sem nome 184" x1="929.2" y1="582.2" x2="1040.8" y2="582.2" gradientTransform="translate(982.9 -370.7) rotate(60)" gradientUnits="userSpaceOnUse">
      <stop offset="0" stop-color="#bc220d"/>
      <stop offset=".3" stop-color="#ed2f1a"/>
      <stop offset=".6" stop-color="#dd0e22"/>
      <stop offset=".8" stop-color="#d51610"/>
      <stop offset=".9" stop-color="#d4170d"/>
    </linearGradient>
    <linearGradient id="Gradiente_sem_nome_168" data-name="Gradiente sem nome 168" x1="1056.7" y1="376.6" x2="1182.5" y2="376.6" gradientTransform="translate(764.6 -572.9) rotate(55.2)" gradientUnits="userSpaceOnUse">
      <stop offset="0" stop-color="#bc220d"/>
      <stop offset=".3" stop-color="#e52804"/>
      <stop offset=".6" stop-color="#f1331c"/>
      <stop offset=".9" stop-color="#d4170d"/>
    </linearGradient>
    <linearGradient id="Gradiente_sem_nome_173" data-name="Gradiente sem nome 173" x1="1055.2" y1="571.3" x2="1187.7" y2="571.3" gradientTransform="translate(559.2 -377.7) rotate(37.2)" gradientUnits="userSpaceOnUse">
      <stop offset="0" stop-color="#bc220d"/>
      <stop offset=".4" stop-color="#e52804"/>
      <stop offset=".6" stop-color="#f1331c"/>
      <stop offset=".9" stop-color="#d4170d"/>
    </linearGradient>
    <linearGradient id="Gradiente_sem_nome_570" data-name="Gradiente sem nome 570" x1="1319.7" y1="762.6" x2="1368.5" y2="721.7" gradientTransform="translate(-42.8 243.3) rotate(-3)" gradientUnits="userSpaceOnUse">
      <stop offset=".1" stop-color="#000"/>
      <stop offset=".6" stop-color="#5a4a41"/>
      <stop offset=".8" stop-color="#2b0406"/>
    </linearGradient>
    <linearGradient id="Gradiente_sem_nome_441" data-name="Gradiente sem nome 441" x1="1754.1" y1="432.2" x2="1796.3" y2="432.2" gradientTransform="translate(-42.8 243.3) rotate(-3)" gradientUnits="userSpaceOnUse">
      <stop offset="0" stop-color="#df220d"/>
      <stop offset=".4" stop-color="#d5180c"/>
      <stop offset=".9" stop-color="#ad171c"/>
    </linearGradient>
    <linearGradient id="Gradiente_sem_nome_433" data-name="Gradiente sem nome 433" x1="901.9" y1="479.7" x2="934.3" y2="479.7" gradientTransform="translate(-42.8 243.3) rotate(-3)" gradientUnits="userSpaceOnUse">
      <stop offset="0" stop-color="#e3220d"/>
      <stop offset=".4" stop-color="#d5180c"/>
      <stop offset=".9" stop-color="#ad171c"/>
    </linearGradient>
  </defs>
  <path class="cls-32" d="M1537.2,716.6l-3.2,9.3c2.5,1.6,5,3.3,7.5,5.1,30.4,21.2,53.5,46.8,71.2,72.8,6.9-17,22.9-61.4,16.3-106.5-1.4-9.8-3.8-18.4-7.1-30.6-11.6-42.7-20.5-49.2-24.5-51.5-3.9-2.3-10.9-5.2-22.1-4.3-12.7,35.3-25.5,70.5-38.2,105.8"/>
  <path class="cls-13" d="M803.6,654.6c5.8-8.5,104.7-8,1020.8-141.5,32.6-3.5,69.6-7.5,70.9-1.9,2.1,9.1,7.6,19.9-7.9,41.4-20.4,28.4-32.8,34.5-64.8,48.9-342.6,67-578.6,81.1-883.4,104.3-62.1-4-91.3-15.3-104.7-16.4-2.6-.2-32.8-12.5-35.6-18.2,0,0-2.8-5.8,4.6-16.6Z"/>
  <path class="cls-3" d="M1698.2,778.9l45.6-173.6s-3.3-8.6-3.2-6.7-49.8,178.9-49.8,178.9l7.4,1.4Z"/>
  <path class="cls-9" d="M1705.5,781.6l45.6-173.6s-7.5-5.1-7.5-3.3-45.5,175.4-45.5,175.4l7.4,1.4Z"/>
  <path class="cls-34" d="M877,823.6l17.7-133.4s-3.2-6.1-3-4.7c.2,1.3-20.3,137.8-20.3,137.8l5.6,.4Z"/>
  <path class="cls-15" d="M1147.3,609.4s339.4,11.5,160.7,77.2l-160.7-77.2Z"/>
  <g>
    <path class="cls-35" d="M1308.5,609.5c1.2,22.5-14.2,55.6-36.7,56.8-22.5,1.2-43.6-30-44.8-52.6-1.2-22.5,16.1-41.7,38.6-42.9,22.5-1.2,41.7,16.1,42.9,38.6Z"/>
    <path class="cls-31" d="M1242.4,686.5c.2,1.1,1.4,2.2,2.5,2.2,2.9,0,7-7.5,6.3-14.3-.6-5.3-1.1-7.7-7.7-13.6-7.4-6.6-4.6-12.8-5.6-18.4-.8-4.7-1.9-10.8-1-18.6,.8-7.1,3.6-11,6.3-14.3,4.5-5.6,10-5.2,25.4-6,14-.7,23.1,.5,26,5.7,5.1,9.1,13.6,16.1,10.7,25.1-1.5,4.7-2,6.6-1.7,11.8,.4,5.8,1.7,7.3,.6,11.6-.7,2.5-4.5,3.2-7.6,9.6-.4,.9-.8,1.6-1.1,2.6-1.7,4.2-4.2,9.6-1.8,9.4,5.2-.3,1.4-3.7,2.1-4.8,2.6-4,2-7.1,4.2-9.6,2.2-2.5,6.8-3.3,6.6-7.4s-1.5-8.7-.7-14c.6-3.6,2.3-11.2,3.9-14.2,6.4-12,.4-37.4-7.1-46.3-3.1-3.8-12.4-18-35.9-16.8-25.6,1.3-32.6,14.8-38.1,30-6.1,16.7-3.3,25.9,4.5,41.8,2.2,4.5-.3,12.4,.8,16.3,2.1,7.1,4.7,6.5,7.5,9,2.5,2.2,2.9,1,4.9,4.4,1.9,3.3,3,7.3,2.8,9.2-.5,4.8-7.2,6.5-6.5,9.7Z"/>
    <path class="cls-26" d="M1227.4,598.9c0-2.3-8.6-.8-9.4,2.1-2.6,9.3-.7,25.6,3.9,28.1s3.8-1.1,5.8-2.5c-2-11.7-.4-22.4-.3-27.6Z"/>
    <path class="cls-19" d="M1307.3,592.9c-.6-2.3,8.2-2.7,9.6,0,4.5,8.5,6.3,24.9,2.3,28.3-1.9,1.7-5.1,.4-7.4-.6-.6-11.9-3.3-22.7-4.6-27.7Z"/>
    <path class="cls-36" d="M1228.5,598.5c-2.4-2.9-.4-10.2,3.9-14.2,6.7-6.2,19.2-.7,37.3-1.9,19.6-1.4,25.4-6,32.6-1.7,6.5,3.9,7.7,10.4,5.4,13.7-2.6,3.7-11.4-1-32.7-.6-4.1,0-7.2,.3-9.3,.5-24.2,1.9-33.8,8.2-37.1,4.3Z"/>
    <ellipse class="cls-12" cx="1248.3" cy="589.5" rx="17.6" ry="11.4" transform="translate(-103.4 308.9) rotate(-13.6)"/>
    <ellipse class="cls-21" cx="1248" cy="589.2" rx="13" ry="8.6" transform="translate(-103.3 308.8) rotate(-13.6)"/>
    <ellipse class="cls-12" cx="1285.2" cy="587" rx="11.4" ry="17.6" transform="translate(616.2 1831.5) rotate(-86.3)"/>
    <ellipse class="cls-23" cx="1285" cy="586.6" rx="8.6" ry="13" transform="translate(616.4 1830.9) rotate(-86.3)"/>
    <ellipse class="cls-6" cx="1253.9" cy="622.8" rx="3.9" ry="4.7" transform="translate(-30.7 66.1) rotate(-3)"/>
    <ellipse class="cls-6" cx="1282.4" cy="621.7" rx="3.9" ry="4.7" transform="translate(-30.6 67.5) rotate(-3)"/>
    <path class="cls-37" d="M1245.1,616.5c0-1.6,10.9-5.3,14.7-1.2,.3,.3,.9,2.1,.9,2.1-4-3.4-15.6-1-15.6-1Z"/>
    <path class="cls-37" d="M1291,613.5c0-1.6-11.4-4.2-14.7,.4-.2,.3-.7,2.2-.7,2.2,3.6-3.8,15.4-2.6,15.4-2.6Z"/>
    <path class="cls-6" d="M1279.8,645.2c-2,2-3.7,6.8-11.1,7.2s-7.2-4.3-7.2-4.3c4.7-.2,18.3-2.9,18.3-2.9Z"/>
    <path class="cls-37" d="M1274.8,635.8c-3.1,1.8-4.7,1.8-5.2,1.9-3.2,0-4.9-1.3-4.9-1.3,3.8,1.4,10.1-.5,10.1-.5Z"/>
  </g>
  <path class="cls-30" d="M1147.2,605.9s47.5-102.8,111.3,56.9l-111.3-56.9Z"/>
  <polygon class="cls-4" points="1553.8 893.9 1550.2 896.4 1542.4 854.6 1545.9 852.1 1553.8 893.9"/>
  <path class="cls-5" d="M882.7,824.9l17.7-133.4s-6.1-3.1-5.9-1.7-17.5,134.8-17.5,134.8l5.6,.4Z"/>
  <circle class="cls-38" cx="1066.5" cy="910.5" r="31.8"/>
  <circle class="cls-17" cx="1067.4" cy="911.4" r="15.5"/>
  <path class="cls-9" d="M1063.4,865.7h169.7c.5,0,.9,.4,.9,.9v6.6c0,.5-.4,.9-.9,.9h-169.7c-.5,0-.9-.4-.9-.9v-6.6c0-.5,.4-.9,.9-.9Z" transform="translate(2571.4 1093.5) rotate(151.8)"/>
  <path class="cls-9" d="M1200.9,868.5h143.8c.5,0,.9,.4,.9,.9v6.6c0,.5-.4,.9-.9,.9h-143.8c-.5,0-.9-.4-.9-.9v-6.6c0-.5,.4-.9,.9-.9Z" transform="translate(631.1 -530.9) rotate(31)"/>
  <path class="cls-27" d="M1645.3,823.2c-14.8,58.9-201.8,36-347.2,26-180.9-12.4-332.9-147.7-293.6-187.1,160.8-161.1,286.3,80.1,327.8-31.4,8.1-21.8,327.7,133.6,312.9,192.5Z"/>
  <path class="cls-18" d="M839.9,812.9c5.9-6.4,101.1-4.3,987.6-91.2,31.5-2.1,67.3-4.6,68.4-.2,1.7,7,6.7,15.3-8.9,31.5-20.5,21.4-32.7,25.8-64,36.3-332.1,45.5-559.8,52.4-854.1,65-59.7-4.1-87.5-13.2-100.3-14.3-2.5-.2-31.2-10.1-33.7-14.5,0,0-2.5-4.5,5-12.6Z"/>
  <path class="cls-33" d="M1102.3,778.6c-21.6-2.3-41.5-15.1-52.7-31.9-24-36-12.2-96.6,34.3-145.7,24.4,2.4,48.8,4.7,73.2,7.1,33.6,27.8,46.6,71.9,33,109.4-12.7,35-49.2,65.2-87.9,61Z"/>
  <path class="cls-25" d="M1085,776.6c-24.3-11.5-43-21.4-52.7-31.9-29.4-31.7-12.2-96.6,34.3-145.7,24.4,2.4,48.8,4.7,73.2,7.1,33.6,27.8,46.6,71.9,33,109.4-12.7,35-52.7,77.7-87.9,61Z"/>
  <ellipse class="cls-14" cx="1047.7" cy="665.4" rx="72.9" ry="54" transform="translate(281.7 1642.1) rotate(-84.3)"/>
  <ellipse class="cls-8" cx="1038.6" cy="665.2" rx="63.8" ry="34.4" transform="translate(273.8 1632.8) rotate(-84.3)"/>
  <ellipse class="cls-28" cx="956.1" cy="568.8" rx="18.8" ry="106.7" transform="translate(-150.7 681.3) rotate(-36.6)"/>
  <ellipse class="cls-22" cx="971.2" cy="773.5" rx="106.7" ry="18.8" transform="translate(-159.1 1287.3) rotate(-63)"/>
  <ellipse class="cls-3" cx="1028.9" cy="664.9" rx="17.2" ry="11.6" transform="translate(265.3 1622.9) rotate(-84.3)"/>
  <ellipse class="cls-11" cx="1094.9" cy="561.2" rx="106.7" ry="18.8" transform="translate(40.4 1195.2) rotate(-58.2)"/>
  <ellipse class="cls-2" cx="1106.9" cy="755.5" rx="18.8" ry="106.7" transform="translate(-226.2 892.7) rotate(-40.2)"/>
  <path class="cls-3" d="M1730.2,560l-6.8,5.7s0,0,0,.1l20.7,40.3c0,.1,.3,0,.2,0l-13.9-45.9c0,0-.1-.1-.2,0Z"/>
  <rect class="cls-16" x="1248.6" y="841.6" width="128.3" height="7.2" rx=".7" ry=".7" transform="translate(1889.2 -605.7) rotate(78.9)"/>
  <rect class="cls-9" x="1024.7" y="853.6" width="116.4" height="8.4" rx=".9" ry=".9" transform="translate(2144.8 -25.9) rotate(101.9)"/>
  <circle class="cls-39" cx="1338.1" cy="914.6" r="31.8"/>
  <circle class="cls-20" cx="1339.1" cy="915.4" r="15.5"/>
  <circle class="cls-1" cx="1338.6" cy="915.5" r="5.7"/>
  <circle class="cls-1" cx="1553.5" cy="893" r="13.8"/>
  <circle class="cls-29" cx="1553.9" cy="893.4" r="6.7"/>
  <path class="cls-7" d="M1554.3,895.1l-.7-.2c-.9-.3-1.4-1.4-1.1-2.3l37.5-45.1c.3-.9,1.4-1.4,2.3-1.1l.7,.2c.9,.3,1.4,1.4,1.1,2.3l-37.5,45.1c-.3,.9-1.4,1.4-2.3,1.1Z"/>
  <path class="cls-10" d="M1733.6,559.1l40,34.6c1.1,.9,.9,2.7-.4,3.4l-21.3,10.5c-.5,.3-1.2,.3-1.7,0l-5.7-2.5c-.5-.2-1-.7-1.1-1.3l-13-42.6c-.6-1.9,1.7-3.5,3.3-2.1Z"/>
  <path class="cls-34" d="M881.7,660.2l-3.5,3.8c-.2,.2-.3,.6,0,.9l14.9,21.8c.5,.7,1.6,.1,1.3-.7l-11.4-25.6c-.2-.5-.8-.6-1.2-.2Z"/>
  <path class="cls-24" d="M886.5,659.2l27.8,18.5c1.7,1.1,1.6,3.5,0,4.6l-12.8,8.4c-.7,.4-1.5,.6-2.3,.3l-3.4-1c-.8-.2-1.4-.8-1.8-1.5l-11.6-25.9c-1.1-2.5,1.8-5,4.1-3.5Z"/>
</svg>