<?xml version="1.0" encoding="UTF-8"?>
<svg id="Camada_2" data-name="Camada 2" xmlns="http://www.w3.org/2000/svg" width="635.94" height="565.1" xmlns:xlink="http://www.w3.org/1999/xlink" viewBox="0 0 635.94 565.1">
  <defs>
    <style>
      .cls-1 {
        fill: url(#Gradiente_sem_nome_1461-7);
      }

      .cls-1, .cls-2, .cls-3, .cls-4, .cls-5, .cls-6, .cls-7, .cls-8, .cls-9, .cls-10, .cls-11, .cls-12, .cls-13, .cls-14, .cls-15, .cls-16, .cls-17, .cls-18, .cls-19, .cls-20, .cls-21, .cls-22, .cls-23, .cls-24, .cls-25, .cls-26, .cls-27, .cls-28 {
        stroke-miterlimit: 10;
      }

      .cls-1, .cls-2, .cls-4, .cls-5, .cls-6, .cls-7, .cls-8, .cls-9, .cls-10, .cls-11, .cls-12, .cls-13, .cls-14, .cls-15, .cls-16, .cls-17, .cls-18, .cls-19, .cls-20, .cls-21, .cls-22, .cls-24, .cls-25, .cls-26, .cls-27, .cls-28 {
        stroke: #000;
      }

      .cls-1, .cls-6, .cls-7, .cls-12, .cls-15, .cls-21, .cls-26, .cls-28 {
        stroke-width: .69px;
      }

      .cls-2 {
        fill: url(#Gradiente_sem_nome_1461-16);
      }

      .cls-2, .cls-27 {
        stroke-width: .84px;
      }

      .cls-3 {
        fill: #382b0a;
        stroke-width: .39px;
      }

      .cls-3, .cls-23 {
        stroke: #2b0406;
      }

      .cls-4 {
        fill: url(#Gradiente_sem_nome_43);
      }

      .cls-4, .cls-5, .cls-9, .cls-10, .cls-11, .cls-13, .cls-14, .cls-16, .cls-17, .cls-18, .cls-19, .cls-20, .cls-22, .cls-25 {
        stroke-width: 1.38px;
      }

      .cls-5 {
        fill: url(#Gradiente_sem_nome_1461-4);
      }

      .cls-6 {
        fill: url(#Gradiente_sem_nome_1461-8);
      }

      .cls-7 {
        fill: url(#Gradiente_sem_nome_1461-6);
      }

      .cls-8 {
        fill: url(#Gradiente_sem_nome_1461-15);
        stroke-width: 1px;
      }

      .cls-9 {
        fill: url(#Gradiente_sem_nome_1478-2);
      }

      .cls-10 {
        fill: url(#Gradiente_sem_nome_1459-2);
      }

      .cls-11 {
        fill: url(#Gradiente_sem_nome_13);
      }

      .cls-12 {
        fill: url(#Gradiente_sem_nome_1461-9);
      }

      .cls-13 {
        fill: url(#Gradiente_sem_nome_1459);
      }

      .cls-14 {
        fill: url(#Gradiente_sem_nome_1461-2);
      }

      .cls-15 {
        fill: url(#Gradiente_sem_nome_1461-10);
      }

      .cls-16 {
        fill: url(#Gradiente_sem_nome_43-4);
      }

      .cls-17 {
        fill: url(#Gradiente_sem_nome_43-3);
      }

      .cls-18 {
        fill: url(#Gradiente_sem_nome_1461);
      }

      .cls-19 {
        fill: url(#Gradiente_sem_nome_1461-5);
      }

      .cls-20 {
        fill: url(#Gradiente_sem_nome_43-2);
      }

      .cls-21 {
        fill: url(#Gradiente_sem_nome_1461-11);
      }

      .cls-22 {
        fill: url(#Gradiente_sem_nome_1478);
      }

      .cls-23 {
        fill: #282210;
        stroke-width: .9px;
      }

      .cls-24 {
        fill: url(#Gradiente_sem_nome_1461-14);
        stroke-width: 1.13px;
      }

      .cls-25 {
        fill: url(#Gradiente_sem_nome_1461-3);
      }

      .cls-26 {
        fill: url(#Gradiente_sem_nome_1461-12);
      }

      .cls-27 {
        fill: url(#Gradiente_sem_nome_1461-17);
      }

      .cls-28 {
        fill: url(#Gradiente_sem_nome_1461-13);
      }
    </style>
    <linearGradient id="Gradiente_sem_nome_13" data-name="Gradiente sem nome 13" x1="394.67" y1="326.78" x2="634.04" y2="326.78" gradientTransform="translate(-4.24 4.85) rotate(-.87)" gradientUnits="userSpaceOnUse">
      <stop offset="0" stop-color="#cf4b1a"/>
      <stop offset=".71" stop-color="#eb681e"/>
      <stop offset="1" stop-color="#fd8b17"/>
    </linearGradient>
    <linearGradient id="Gradiente_sem_nome_1461" data-name="Gradiente sem nome 1461" x1="-609.08" y1="451.66" x2="-595" y2="316.4" gradientTransform="translate(-256.78 50.85) rotate(155.68) scale(1 -1)" gradientUnits="userSpaceOnUse">
      <stop offset="0" stop-color="#fefbdf"/>
      <stop offset=".66" stop-color="#e5cbaf"/>
    </linearGradient>
    <linearGradient id="Gradiente_sem_nome_43" data-name="Gradiente sem nome 43" x1="213.66" y1="475.35" x2="176.5" y2="537.56" gradientTransform="translate(-4.24 4.85) rotate(-.87)" gradientUnits="userSpaceOnUse">
      <stop offset="0" stop-color="#946a52"/>
      <stop offset=".6" stop-color="#474648"/>
    </linearGradient>
    <linearGradient id="Gradiente_sem_nome_43-2" data-name="Gradiente sem nome 43" x1="-146.59" y1="963.98" x2="-92.99" y2="963.98" gradientTransform="translate(-606.92 437.65) rotate(102.43) scale(.83 -1)" xlink:href="#Gradiente_sem_nome_43"/>
    <linearGradient id="Gradiente_sem_nome_1478" data-name="Gradiente sem nome 1478" x1="160.38" y1="380.24" x2="450.08" y2="380.24" gradientTransform="translate(-4.24 4.85) rotate(-.87)" gradientUnits="userSpaceOnUse">
      <stop offset="0" stop-color="#fd8b17"/>
      <stop offset=".34" stop-color="#eb681e"/>
      <stop offset=".77" stop-color="#cf4b1a"/>
    </linearGradient>
    <linearGradient id="Gradiente_sem_nome_1461-2" data-name="Gradiente sem nome 1461" x1="191.69" y1="129.69" x2="386.85" y2="129.69" gradientTransform="translate(-64.53 258.96) rotate(-8.24)" xlink:href="#Gradiente_sem_nome_1461"/>
    <linearGradient id="Gradiente_sem_nome_43-3" data-name="Gradiente sem nome 43" x1="94.54" y1="730.3" x2="181.25" y2="730.3" gradientTransform="translate(-406.01 834.14) rotate(52.56) scale(1 -1)" xlink:href="#Gradiente_sem_nome_43"/>
    <linearGradient id="Gradiente_sem_nome_1459" data-name="Gradiente sem nome 1459" x1="-543.85" y1="233.76" x2="-439.02" y2="233.76" gradientTransform="translate(-256.78 50.85) rotate(155.68) scale(1 -1)" gradientUnits="userSpaceOnUse">
      <stop offset="0" stop-color="#4d4155"/>
      <stop offset=".78" stop-color="#946a52"/>
    </linearGradient>
    <linearGradient id="Gradiente_sem_nome_1461-3" data-name="Gradiente sem nome 1461" x1="-500.93" y1="269.31" x2="-493.37" y2="196.6" xlink:href="#Gradiente_sem_nome_1461"/>
    <linearGradient id="Gradiente_sem_nome_1459-2" data-name="Gradiente sem nome 1459" x1="3.88" y1="111.86" x2="118.64" y2="111.86" gradientTransform="translate(-4.24 4.85) rotate(-.87)" xlink:href="#Gradiente_sem_nome_1459"/>
    <linearGradient id="Gradiente_sem_nome_1461-4" data-name="Gradiente sem nome 1461" x1="50.87" y1="150.77" x2="59.15" y2="71.17" gradientTransform="translate(-4.24 4.85) rotate(-.87)" xlink:href="#Gradiente_sem_nome_1461"/>
    <linearGradient id="Gradiente_sem_nome_1461-5" data-name="Gradiente sem nome 1461" x1="158.9" y1="280.08" x2="253.85" y2="58.91" gradientTransform="translate(-4.24 4.85) rotate(-.87)" xlink:href="#Gradiente_sem_nome_1461"/>
    <linearGradient id="Gradiente_sem_nome_1478-2" data-name="Gradiente sem nome 1478" x1="154.33" y1="228.33" x2="231.44" y2="48.69" xlink:href="#Gradiente_sem_nome_1478"/>
    <linearGradient id="Gradiente_sem_nome_43-4" data-name="Gradiente sem nome 43" x1="222.69" y1="271.97" x2="255.73" y2="271.97" gradientTransform="translate(-.15 1.21)" xlink:href="#Gradiente_sem_nome_43"/>
    <linearGradient id="Gradiente_sem_nome_1461-6" data-name="Gradiente sem nome 1461" x1="177.26" y1="113.81" x2="184.76" y2="113.81" gradientTransform="translate(-17.74 37.93) rotate(-13.83)" xlink:href="#Gradiente_sem_nome_1461"/>
    <linearGradient id="Gradiente_sem_nome_1461-7" data-name="Gradiente sem nome 1461" x1="181" y1="190.42" x2="190.05" y2="190.42" gradientTransform="translate(-8.31 61.31) rotate(-11.55) scale(.99 .68)" xlink:href="#Gradiente_sem_nome_1461"/>
    <linearGradient id="Gradiente_sem_nome_1461-8" data-name="Gradiente sem nome 1461" x1="138.11" y1="171.32" x2="149.2" y2="171.32" gradientTransform="translate(7.2 117.98) rotate(-33.33) scale(.86 .62)" xlink:href="#Gradiente_sem_nome_1461"/>
    <linearGradient id="Gradiente_sem_nome_1461-9" data-name="Gradiente sem nome 1461" x1="230.36" y1="131.69" x2="240.69" y2="131.69" gradientTransform="translate(25.91 23.45) rotate(7.36) scale(.86 .62)" xlink:href="#Gradiente_sem_nome_1461"/>
    <linearGradient id="Gradiente_sem_nome_1461-10" data-name="Gradiente sem nome 1461" x1="248.19" y1="64.91" x2="255.65" y2="64.91" gradientTransform="translate(71.85 -79.97) rotate(33.55)" xlink:href="#Gradiente_sem_nome_1461"/>
    <linearGradient id="Gradiente_sem_nome_1461-11" data-name="Gradiente sem nome 1461" x1="63.11" y1="160.59" x2="70.66" y2="160.59" gradientTransform="translate(-39.64 113.18) rotate(-60.53)" xlink:href="#Gradiente_sem_nome_1461"/>
    <linearGradient id="Gradiente_sem_nome_1461-12" data-name="Gradiente sem nome 1461" x1="216.89" y1="72.21" x2="224.39" y2="72.21" gradientTransform="translate(19.23 -34.27) rotate(14.83)" xlink:href="#Gradiente_sem_nome_1461"/>
    <linearGradient id="Gradiente_sem_nome_1461-13" data-name="Gradiente sem nome 1461" x1="133.91" y1="121.68" x2="141.43" y2="121.68" gradientTransform="translate(-25.3 73.25) rotate(-31.75)" xlink:href="#Gradiente_sem_nome_1461"/>
    <linearGradient id="Gradiente_sem_nome_1461-14" data-name="Gradiente sem nome 1461" x1="389.84" y1="608.85" x2="400.92" y2="608.85" gradientTransform="translate(78.53 -20.1) rotate(5.36) scale(.99 .68)" xlink:href="#Gradiente_sem_nome_1461"/>
    <linearGradient id="Gradiente_sem_nome_1461-15" data-name="Gradiente sem nome 1461" x1="460.32" y1="577.3" x2="468.79" y2="577.3" gradientTransform="translate(18.9 37.91) rotate(1.22) scale(.86 .62)" xlink:href="#Gradiente_sem_nome_1461"/>
    <linearGradient id="Gradiente_sem_nome_1461-16" data-name="Gradiente sem nome 1461" x1="444.52" y1="390.57" x2="452.05" y2="390.57" gradientTransform="translate(-98.08 94.22) rotate(-7.23)" xlink:href="#Gradiente_sem_nome_1461"/>
    <linearGradient id="Gradiente_sem_nome_1461-17" data-name="Gradiente sem nome 1461" x1="460.12" y1="421.3" x2="467.69" y2="421.3" gradientTransform="translate(-98.08 94.22) rotate(-7.23)" xlink:href="#Gradiente_sem_nome_1461"/>
  </defs>
  <g id="raposa">
    <g>
      <g>
        <g>
          <path class="cls-11" d="M438.23,517.28c33.04,21.28,173.26-35.64,192.34-117.17,18.1-77.37-19.72-120.85-53.25-153.38-45.97-44.6-53.11-52.89-68.67-80.18-35.73-62.7-32.12-23.89-33.47-28.4-.09-.29-63.78-34.81-78.1,24.58-11.66,48.36,4.13,90.8,44.48,119.1,59.14,41.48,65.25,127.04,16.01,148.44-9.79,4.26-45.25,70.33-19.33,87.02Z"/>
          <path class="cls-18" d="M514.84,211.88c6.47-27.63-8.25-51.01-9.51-54.02-15.97-38.19-39.09-65.01-10.52-87.47,2.42-1.9-41.35-3.5-79.08,50.75-28.86,41.51-22.55,88.96-17.73,102.14,4.56,12.47,19.61-56.48,21.31-47.13,6.2,34.11,26.2,67.16,25.75,64.31-1.52-9.61,2.72-74.15,4.49-67.52,1.46,5.48,30.67,52.18,35.24,54.53,2.62,1.35-9.51-56-4.94-53.61,9.19,4.8,34.88,38.5,34.99,38.02Z"/>
        </g>
        <g>
          <path class="cls-4" d="M173.2,530.42c-2.53-8.82,28.09-11.71,37.54-35.86,6.63-16.95,.91-76.86,5.84-68.92,4.23,6.82,7.03,9.53,14.01,16.31,8.61,8.36,6.62,46.75,1.5,58.99-5.34,12.79-13.23,31.68-31.3,36.1-11.21,2.74-25.77-.22-27.6-6.61Z"/>
          <path class="cls-20" d="M299.72,552.41c3.79-6.86,23.98-2.88,48.05-8.99,16.89-4.29,33.25-13.46,42.1-10.52,7.07,2.35,24.22,2.65,22.59,9.54-2.29,9.69-41.02,18.52-61.62,21.58-11.12,1.65-56.47-1.9-51.11-11.62Z"/>
          <g>
            <path class="cls-22" d="M201.3,234.51c28.73-23.05,46.06-24.37,78.43-2.56,38.8,26.15,31.9,16.36,79.53,70.38,33.62,38.13,49.09,46.82,71.4,78.77,24.71,35.38,31.76,95.67,4.8,137.07-3.96,6.09-7.33,11.26-13.5,15.86-49.29,36.79-181.82-29.78-238.77-131.3-33.83-60.3-29.98-129.65,18.11-168.22Z"/>
            <path class="cls-14" d="M173.92,244.56c42.18-20.2,89.07-10.62,94.82-11.07,22-1.71,53.11,33.29,62.31,58.38,2.66,7.26-27.06-15.68-30.78-10.84-3.15,4.09,31.96,19.02,35.17,70.01,.53,8.36-28.48-30.1-21.44-13.59,4.66,10.92,9.41,80.53,2.8,70.14-11.28-17.73-23.62-35.33-23.55-30.98,.45,31.92-20.1,76.48-31.19,82.4-12.69,6.77-56.91-37.66-62.61-67.43-2.34-12.24-6.17,34.27-8.12,30.38-2.19-4.35-31.11-23.83-28.7-44.52,4.26-36.64,1.62-23.3-15.38-.56-3.5,4.68-3.6-53.72,17.57-80.43,4.35-5.49-10.13-2.71-23.89,27.1-3.76,8.15-8.62-59.07,33-79Z"/>
          </g>
          <path class="cls-17" d="M217.99,553.67c-2.53-8.82,22.11-13.88,31.56-38.03,6.63-16.95,2.97-52.66,11.6-56.26,6.84-2.86,10.31-10.06,21.52-33.36,1.33-2.77-.67,85.92-5.78,98.17-5.34,12.79-13.23,31.68-31.3,36.1-11.21,2.74-25.77-.22-27.6-6.61Z"/>
        </g>
        <g>
          <g>
            <path class="cls-13" d="M301.6,103.1c22.45-1.43,27.41-110.35,11.88-101.95-65.34,35.33-86.93,64.11-79.76,67.77,48.68,24.85,64.96,34.36,67.88,34.18Z"/>
            <path class="cls-25" d="M301.89,103.63c20.7,.81,24.38-98.6,17.5-95.49-62.34,28.17-82.86,60.9-75.17,65.7,19.62,12.26,54.4,29.66,57.67,29.79Z"/>
          </g>
          <g>
            <path class="cls-10" d="M63.94,163.63C41.04,172.67-14.61,67.07,4.68,68.16c81.19,4.57,115.98,23.02,110.58,29.99-36.65,47.29-48.35,64.3-51.32,65.48Z"/>
            <path class="cls-5" d="M63.89,164.28C43.77,174.73-6.18,77.96,2.07,77.83c74.88-1.13,110.46,21.73,105.08,30.07-13.73,21.28-40.08,54.72-43.26,56.37Z"/>
          </g>
          <g>
            <path class="cls-19" d="M30.75,219.04c-.4-26.6,40.02-135.35,132.39-160.79,98.88-27.24,213.8,71.67,201.96,80.84-2.37,1.83-36.9,20.55-50.54,29.01-9.6,5.96,59.89-5.18,50.99,.94-8.04,5.54-58.62,18.71-51.99,23.85,6.96,5.4,29.66,6.43,38.64,6.3,6.97-.11-106.96,27.77-104.79,82.49,.38,9.47-19.85-7.31-69.35-28.91-33.18-14.48-82.92,2.49-80.88,1.22,14.84-9.21,33.01-26.48,17.61-24.23-31.21,4.55-58.91,11.97-59.77,9.89-1.57-3.78,40.54-19.29,38.58-24.55-2.01-5.4-62.77,9.94-62.86,3.95Z"/>
            <path class="cls-9" d="M44.08,170.12c7.01-29.97,42.69-90.13,124.45-113.9,71.85-20.89,173.26,46.07,170.61,52.99-1.07,2.8-101.75,96.84-99.63,151.82,.06,1.5-4.8,7.24-10.37-1.89-28.87-47.34-187.64-77.98-185.06-89.03Z"/>
            <ellipse class="cls-16" cx="239.06" cy="273.18" rx="16.52" ry="17.21" transform="translate(-4.1 3.64) rotate(-.87)"/>
          </g>
        </g>
      </g>
      <path class="cls-23" d="M274.33,167.43c-1.3-2.52-37.39-8.29-44.75-1.75-.53,.48-.66,3.38-.66,3.38,8.56-5.34,45.41-1.63,45.41-1.63Z"/>
      <ellipse class="cls-3" cx="240.67" cy="189.4" rx="8.72" ry="10.28" transform="translate(-26.3 39.34) rotate(-8.86)"/>
      <ellipse class="cls-3" cx="175.93" cy="199.38" rx="8.72" ry="10.28" transform="translate(-28.62 29.48) rotate(-8.86)"/>
      <path class="cls-23" d="M140.99,188.56c.47-2.79,33.09-19.29,42.09-15.29,.65,.29,1.66,3.02,1.66,3.02-9.78-2.48-43.75,12.28-43.75,12.28Z"/>
      <g>
        <path class="cls-7" d="M189.27,106.09c2.06,6.57,1.63,13.76,.18,12.41-2.32-2.16-5.86-4.31-7.5-10.99-1.65-6.69-2.24-17.39-.99-15.71,2.06,2.77,6.44,8.31,8.32,14.29Z"/>
        <path class="cls-1" d="M202.81,151.89c.74,2.55,1.54,10.99,1.03,15.65-.41,3.75-8.08-5.4-9.79-13.76-1.71-8.36-1.07-21.9,.18-19.62,1.47,2.69,6.41,10.26,8.58,17.72Z"/>
        <path class="cls-6" d="M173.34,137.08c4.7,6.16,8.65,17.5,4.5,13.31-2.3-2.32-8.4-1.99-12.65-8.46-4.25-6.47-8.37-18.07-6.6-16.51,2.2,1.95,10.47,6.05,14.75,11.66Z"/>
        <path class="cls-12" d="M220.61,132.56c-.45,7.74-6.11,16.19-5.27,13.03,1.29-4.86-4.04-10.02-3.05-17.7,.99-7.68,4.59-16.14,4.73-13.78,.27,4.57,4,11.41,3.59,18.46Z"/>
        <path class="cls-15" d="M248.04,116.9c-1.77,2.9-5.35,6.34-9.01,8.53-2.21,1.32-.8-7.22,3.01-12.96,3.81-5.74,11.15-13.44,10.89-11.36-.41,3.16-1.62,10.44-4.89,15.8Z"/>
        <path class="cls-21" d="M136.44,131.64c1.18,.87,6.2,3.85,9.15,8.38,1.4,2.15-7.15,1.31-13.14-2.08-5.99-3.39-14.19-9.84-12.11-10.05,3.24-.33,11.05,.04,16.1,3.75Z"/>
        <path class="cls-26" d="M217.2,94.53c-1.35,6.76-5.95,14.37-5.79,10.97,.12-2.57-3.07-6.59-1.31-13.24,1.76-6.66,6.23-16.31,6.66-14.26,1.18,5.61,1.67,10.38,.44,16.53Z"/>
        <path class="cls-28" d="M159.88,103.87c3.98,5.62,6.6,12.78,3.99,11.75-2.39-.94-6.9-2.3-10.52-8.15-3.62-5.85-7.48-15.86-5.78-14.64,2.81,2,8.69,5.93,12.31,11.04Z"/>
      </g>
      <g>
        <path class="cls-24" d="M436.01,431.3c-.17,8.54-5.18,18.29-5.48,14.53-.33-4.14-6.16-7.52-5.36-16.01,.8-8.49,5.35-21.27,5.87-18.72,.62,3,5.13,12.44,4.97,20.21Z"/>
        <path class="cls-8" d="M414.44,400.62c.38,7.74,.08,5.51-1.49,17.67-.42,3.24-5.79-6.4-5.62-14.14s3.53-19.67,3.92-17.34c.76,4.51,2.85,6.77,3.2,13.82Z"/>
        <path class="cls-2" d="M399.66,426.6c1.29,6.77,.14,7.28-1.25,12.34-.68,2.48-5.32-4.95-6.19-11.78s-.33-17.46,.82-15.72c1.76,2.66,5.44,9,6.62,15.15Z"/>
        <path class="cls-27" d="M419.03,455.33c1.29,6.77,1.3,12.02-1.25,12.34s-5.32-4.95-6.19-11.78c-.87-6.83-.33-17.46,.82-15.72,1.76,2.66,5.44,9,6.62,15.15Z"/>
      </g>
    </g>
  </g>
</svg>